#!OML:ASF F:\VICON\USERDATA\INSTALL\rory3\rory3.ASF
:FULLY-SPECIFIED
:DEGREES
391
root -12.5197 17.6821 14.4748 -8.25402 -48.0369 7.71554
lowerback 8.32681 0.858765 -3.80324
upperback 1.91824 0.741566 -1.30184
thorax -2.71202 0.375884 0.713531
lowerneck -20.7214 -3.81714 -8.20797
upperneck 26.1328 -4.74957 6.56163
head 12.4724 -2.12423 3.08071
rclavicle -2.72832e-014 -7.35503e-015
rhumerus -36.453 -4.81107 -80.2252
rradius 29.4599
rwrist 5.43605
rhand -14.5579 11.8836
rfingers 7.12502
rthumb 11.5911 -17.7759
lclavicle -2.72832e-014 -7.35503e-015
lhumerus -34.1823 -2.46816 81.0506
lradius 32.3986
lwrist -3.773
lhand -14.5309 24.5075
lfingers 7.12502
lthumb 11.6172 54.1655
rfemur -21.7897 -2.22085 15.0997
rtibia 65.1199
rfoot -7.6285 0.393209
rtoes 2.86406
lfemur -4.64253 1.00887 -29.812
ltibia 23.2063
lfoot -10.7068 -4.01629
ltoes 5.96595
392
root -12.6261 17.6507 14.5751 -8.46635 -47.9799 8.0155
lowerback 8.78154 0.991694 -4.90901
upperback 1.61691 0.812965 -0.601726
thorax -3.30474 0.43948 2.04279
lowerneck -20.4749 -3.93462 -8.76802
upperneck 26.2294 -4.59024 6.03812
head 12.4502 -2.18472 3.00331
rclavicle -2.51711e-014 6.36111e-015
rhumerus -37.0779 -4.05559 -79.1801
rradius 29.7409
rwrist 4.97744
rhand -14.5803 11.8369
rfingers 7.12502
rthumb 11.5696 -17.8237
lclavicle -2.51711e-014 6.36111e-015
lhumerus -34.5472 -2.01639 82.1415
lradius 32.8572
lwrist -3.91517
lhand -14.4907 24.474
lfingers 7.12502
lthumb 11.6559 54.1298
rfemur -22.7865 -2.46145 14.9608
rtibia 63.9595
rfoot -8.49409 0.374398
rtoes 0.416237
lfemur -4.38892 1.05776 -30.0948
ltibia 23.8003
lfoot -11.5247 -3.79913
ltoes 2.15007
393
root -12.7328 17.6268 14.6737 -8.67303 -47.9081 8.31962
lowerback 8.54935 0.892345 -4.71731
upperback 1.83531 0.703644 -0.952005
thorax -2.93437 0.369483 1.58864
lowerneck -20.6079 -3.89823 -8.52625
upperneck 26.0095 -4.66978 6.28323
head 12.3956 -2.15764 3.03864
rclavicle -2.45251e-014 -1.0138e-014
rhumerus -36.7893 -4.52328 -79.5678
rradius 29.7071
rwrist 5.19889
rhand -14.681 11.7661
rfingers 7.12502
rthumb 11.4724 -17.9
lclavicle -2.45251e-014 -1.0138e-014
lhumerus -33.9675 -2.43179 81.7212
lradius 33.2799
lwrist -4.05214
lhand -14.4948 24.484
lfingers 7.12502
lthumb 11.652 54.14
rfemur -23.7076 -2.76982 14.8092
rtibia 62.6406
rfoot -9.21494 0.419388
rtoes -1.54638
lfemur -4.06344 1.09329 -30.3538
ltibia 24.2214
lfoot -12.1683 -3.70738
ltoes 0.248194
394
root -12.8384 17.6122 14.7722 -8.69085 -47.8796 8.31728
lowerback 8.65585 0.861867 -4.72367
upperback 1.87316 0.658089 -0.916194
thorax -2.95186 0.346519 1.63362
lowerneck -20.6082 -3.88351 -8.61496
upperneck 25.8664 -4.66107 6.45722
head 12.3453 -2.13798 3.11961
rclavicle -1.04436e-013 1.19271e-014
rhumerus -36.7165 -4.47413 -79.5477
rradius 29.7067
rwrist 5.11094
rhand -14.5808 11.6982
rfingers 7.12502
rthumb 11.569 -17.9625
lclavicle -1.04436e-013 1.19271e-014
lhumerus -33.5623 -2.98117 81.8353
lradius 33.618
lwrist -3.77656
lhand -14.4167 24.6352
lfingers 7.12502
lthumb 11.7273 54.2869
rfemur -24.4723 -2.93382 14.8957
rtibia 61.135
rfoot -9.85735 0.472663
rtoes -1.54849
lfemur -3.58135 1.09216 -30.3475
ltibia 24.3857
lfoot -12.4755 -3.8769
ltoes 2.64461
395
root -12.945 17.6005 14.8687 -8.69319 -47.8224 8.4266
lowerback 8.58276 0.831578 -4.68349
upperback 1.89631 0.623104 -1.00591
thorax -2.88367 0.326676 1.5229
lowerneck -20.4798 -3.89876 -8.72606
upperneck 25.7004 -4.74117 6.76823
head 12.2729 -2.14503 3.242
rclavicle 3.10353e-014 1.07344e-014
rhumerus -36.5488 -4.97928 -79.5502
rradius 29.5549
rwrist 5.5269
rhand -14.3524 11.4793
rfingers 7.12502
rthumb 11.7893 -18.1689
lclavicle 3.10353e-014 1.07344e-014
lhumerus -33.0409 -3.74347 81.797
lradius 33.7893
lwrist -3.45362
lhand -14.6698 24.5051
lfingers 7.12502
lthumb 11.4832 54.1705
rfemur -25.2956 -2.96791 14.8995
rtibia 59.4784
rfoot -10.3811 0.361173
rtoes 0.155269
lfemur -3.11652 1.17179 -30.4163
ltibia 24.3534
lfoot -12.8004 -4.05437
ltoes 3.10454
396
root -13.0543 17.5856 14.9653 -8.93438 -47.8421 8.95697
lowerback 8.51823 0.892524 -5.0697
upperback 1.80997 0.669079 -1.05931
thorax -2.94369 0.354884 1.67885
lowerneck -20.3458 -3.91141 -8.76794
upperneck 25.6636 -4.76738 6.80561
head 12.2363 -2.15856 3.25886
rclavicle -3.39176e-014 -8.94531e-015
rhumerus -36.4891 -5.45776 -79.4199
rradius 29.3555
rwrist 6.03789
rhand -14.5212 11.0644
rfingers 7.12502
rthumb 11.6265 -18.593
lclavicle -3.39176e-014 -8.94531e-015
lhumerus -32.7891 -4.09551 81.8987
lradius 34.0652
lwrist -3.50771
lhand -14.9546 24.5418
lfingers 7.12502
lthumb 11.2086 54.2224
rfemur -26.1708 -2.93649 14.5924
rtibia 57.6974
rfoot -10.7027 0.165116
rtoes 1.23323
lfemur -2.64963 1.4382 -30.7858
ltibia 24.1883
lfoot -13.1825 -4.10439
ltoes 0.799609
397
root -13.1643 17.5776 15.0671 -9.14716 -47.9712 9.24525
lowerback 8.50797 0.92301 -5.30548
upperback 1.85182 0.689712 -1.06421
thorax -2.8983 0.364707 1.80399
lowerneck -20.3444 -3.86779 -8.62426
upperneck 25.556 -4.71543 6.70285
head 12.1817 -2.13308 3.20141
rclavicle 3.95333e-014 -8.94531e-015
rhumerus -36.3871 -5.5986 -79.4076
rradius 29.3064
rwrist 6.384
rhand -14.5761 11.0837
rfingers 7.12502
rthumb 11.5735 -18.5767
lclavicle 3.95333e-014 -8.94531e-015
lhumerus -32.5438 -4.25288 81.9374
lradius 34.5046
lwrist -3.64839
lhand -15.0849 24.5597
lfingers 7.12502
lthumb 11.0829 54.2471
rfemur -26.752 -2.96273 14.5071
rtibia 55.7422
rfoot -10.8553 0.124224
rtoes 0.879508
lfemur -1.95674 1.61433 -30.9708
ltibia 23.9132
lfoot -13.4734 -4.06636
ltoes 0.827951
398
root -13.2735 17.5767 15.1674 -9.04336 -47.9236 9.21594
lowerback 8.83492 0.974323 -5.94658
upperback 1.62146 0.691188 -0.527163
thorax -3.3332 0.390011 2.7167
lowerneck -20.3072 -3.91174 -8.94263
upperneck 25.7061 -4.56901 6.32921
head 12.2197 -2.15015 3.1396
rclavicle -5.10628e-014 -1.27222e-014
rhumerus -36.664 -4.88345 -78.799
rradius 29.4335
rwrist 6.20029
rhand -14.5379 11.181
rfingers 7.12502
rthumb 11.6104 -18.4773
lclavicle -5.10628e-014 -1.27222e-014
lhumerus -32.6038 -4.18086 82.6946
lradius 34.7854
lwrist -3.93027
lhand -15.3044 24.4993
lfingers 7.12502
lthumb 10.8711 54.1979
rfemur -27.2829 -3.1481 14.6212
rtibia 53.6412
rfoot -11.0202 0.254002
rtoes 0.12768
lfemur -1.30888 1.7416 -30.921
ltibia 23.5262
lfoot -13.6592 -4.29956
ltoes 2.32992
399
root -13.3841 17.574 15.2642 -8.83627 -47.7963 9.17686
lowerback 8.36757 0.763476 -5.35317
upperback 1.8566 0.485765 -1.01733
thorax -2.80151 0.261885 1.90292
lowerneck -20.5787 -3.82896 -8.41098
upperneck 25.5587 -4.68853 6.62829
head 12.2188 -2.10466 3.14009
rclavicle 5.70512e-014 2.22639e-014
rhumerus -36.2161 -5.43304 -79.5973
rradius 29.3497
rwrist 6.56921
rhand -14.6048 10.9563
rfingers 7.12502
rthumb 11.5459 -18.7057
lclavicle 5.70512e-014 2.22639e-014
lhumerus -31.8865 -4.78484 81.9092
lradius 35.0272
lwrist -4.01451
lhand -15.3792 24.3182
lfingers 7.12502
lthumb 10.799 54.0206
rfemur -27.8465 -3.36084 14.7483
rtibia 51.4019
rfoot -11.0781 0.0903519
rtoes -0.234865
lfemur -0.69327 1.77365 -30.8748
ltibia 23.0017
lfoot -13.8439 -4.3333
ltoes 1.53432
400
root -13.4953 17.5672 15.36 -9.00778 -47.6561 9.55685
lowerback 8.4197 0.711447 -5.71749
upperback 1.78479 0.376879 -1.05703
thorax -2.8989 0.213892 2.07694
lowerneck -20.6046 -3.82194 -8.35925
upperneck 25.621 -4.70441 6.64514
head 12.2488 -2.10484 3.13624
rclavicle 1.0138e-014 2.18663e-015
rhumerus -36.2867 -5.32166 -79.6709
rradius 29.411
rwrist 6.52964
rhand -14.5955 10.8816
rfingers 7.12502
rthumb 11.5548 -18.7799
lclavicle 1.0138e-014 2.18663e-015
lhumerus -31.7323 -4.98364 81.8889
lradius 35.3111
lwrist -4.18748
lhand -15.3639 24.0895
lfingers 7.12502
lthumb 10.8137 53.7911
rfemur -28.3061 -3.61213 14.5924
rtibia 49.0655
rfoot -10.7668 -0.449696
rtoes -0.633741
lfemur 0.0676152 1.6167 -31.1651
ltibia 22.3704
lfoot -14.0064 -4.10939
ltoes -0.0346075
401
root -13.6074 17.5643 15.4618 -9.33009 -47.5873 10.0994
lowerback 8.56317 0.784969 -6.59919
upperback 1.63285 0.392886 -0.710658
thorax -3.14523 0.241404 2.92822
lowerneck -20.5278 -3.89656 -8.74885
upperneck 25.7121 -4.61318 6.39539
head 12.2662 -2.13772 3.12379
rclavicle -6.82577e-014 -7.15625e-015
rhumerus -36.519 -4.70727 -79.1471
rradius 29.6273
rwrist 6.15091
rhand -14.5777 11.032
rfingers 7.12502
rthumb 11.572 -18.6285
lclavicle -6.82577e-014 -7.15625e-015
lhumerus -31.6871 -4.98281 82.5442
lradius 35.5453
lwrist -4.19853
lhand -15.1097 24.0136
lfingers 7.12502
lthumb 11.0589 53.7022
rfemur -28.6662 -3.73476 14.308
rtibia 46.6824
rfoot -10.3764 -0.98349
rtoes -1.09688
lfemur 0.858353 1.5802 -31.5755
ltibia 21.7451
lfoot -14.2048 -4.03404
ltoes -0.2844
402
root -13.7184 17.564 15.5628 -9.27004 -47.4667 10.233
lowerback 8.4418 0.718293 -6.60979
upperback 1.61793 0.310904 -0.764519
thorax -3.08481 0.199215 2.88767
lowerneck -20.5691 -3.88045 -8.68892
upperneck 25.7145 -4.6053 6.38999
head 12.2727 -2.12815 3.11276
rclavicle 7.33515e-014 1.74931e-014
rhumerus -36.4948 -4.68854 -79.2217
rradius 29.7403
rwrist 6.24938
rhand -14.5393 11.0707
rfingers 7.12502
rthumb 11.6091 -18.5877
lclavicle 7.33515e-014 1.74931e-014
lhumerus -31.3969 -5.38241 82.5418
lradius 35.8169
lwrist -4.0382
lhand -15.2377 24.0617
lfingers 7.12502
lthumb 10.9355 53.7569
rfemur -29.0488 -3.88129 14.2983
rtibia 44.2619
rfoot -9.92782 -1.40251
rtoes -0.645109
lfemur 1.54521 1.66149 -31.6472
ltibia 21.1341
lfoot -14.3424 -4.30691
ltoes -0.111722
403
root -13.8323 17.5501 15.6632 -9.07871 -47.3469 10.2556
lowerback 7.77121 0.489765 -5.81239
upperback 1.94729 0.116005 -1.40686
thorax -2.34851 0.0661081 1.79756
lowerneck -20.8119 -3.74061 -8.05381
upperneck 25.4589 -4.68918 6.7302
head 12.2184 -2.0506 3.11551
rclavicle 1.77664e-014 -2.78299e-015
rhumerus -35.9434 -5.30537 -80.1964
rradius 29.726
rwrist 6.65855
rhand -14.5745 11.137
rfingers 7.12502
rthumb 11.5751 -18.5234
lclavicle 1.77664e-014 -2.78299e-015
lhumerus -30.5435 -6.26609 81.5908
lradius 36.1135
lwrist -3.74242
lhand -15.5099 24.147
lfingers 7.12502
lthumb 10.673 53.8559
rfemur -29.4666 -4.04086 14.377
rtibia 41.823
rfoot -9.3439 -1.84936
rtoes -0.144406
lfemur 2.15745 1.86236 -31.6103
ltibia 20.5522
lfoot -14.4811 -4.62032
ltoes -0.899651
404
root -13.9479 17.5343 15.7638 -9.10196 -47.2255 10.5396
lowerback 8.00792 0.565412 -6.76995
upperback 1.62363 0.129415 -0.804749
thorax -2.81916 0.102332 2.95608
lowerneck -20.6432 -3.77564 -8.51272
upperneck 25.6383 -4.45769 6.24119
head 12.235 -2.06161 3.04894
rclavicle -1.56543e-014 1.78906e-014
rhumerus -36.4067 -4.50027 -79.3753
rradius 30.0309
rwrist 6.26405
rhand -14.526 10.8942
rfingers 7.12502
rthumb 11.6219 -18.7635
lclavicle -1.56543e-014 1.78906e-014
lhumerus -30.7754 -6.1916 82.6518
lradius 36.3129
lwrist -3.98708
lhand -15.8328 24.2872
lfingers 7.12502
lthumb 10.3615 54.0119
rfemur -29.7926 -4.13775 14.2283
rtibia 39.3638
rfoot -8.84822 -2.26846
rtoes -0.352805
lfemur 2.78418 1.91122 -31.7953
ltibia 20.0468
lfoot -14.6233 -4.75309
ltoes -1.27631
405
root -14.0608 17.5212 15.8604 -9.21622 -46.9747 10.8488
lowerback 7.95255 0.439064 -6.86819
upperback 1.61426 -0.0476176 -0.941662
thorax -2.78022 0.0133939 2.88687
lowerneck -20.712 -3.76984 -8.54141
upperneck 25.6856 -4.48255 6.39303
head 12.2742 -2.05521 3.1087
rclavicle 2.95195e-014 -1.98785e-014
rhumerus -36.4183 -4.50593 -79.5215
rradius 30.2405
rwrist 5.9741
rhand -14.2542 10.8742
rfingers 7.12502
rthumb 11.884 -18.7686
lclavicle 2.95195e-014 -1.98785e-014
lhumerus -30.5261 -6.68339 82.5595
lradius 36.5471
lwrist -3.84378
lhand -15.7667 24.3265
lfingers 7.12502
lthumb 10.4252 54.0481
rfemur -29.9782 -4.08584 13.9636
rtibia 36.8996
rfoot -8.51832 -2.74791
rtoes -2.41193
lfemur 3.48857 1.9266 -32.0012
ltibia 19.5551
lfoot -14.6965 -4.95808
ltoes -1.08258
